<?xml version="1.0" standalone="no"?><!DOCTYPE svg PUBLIC "-//W3C//DTD SVG 1.1//EN" "http://www.w3.org/Graphics/SVG/1.1/DTD/svg11.dtd"><svg t="1594712316401" class="icon" viewBox="0 0 1024 1024" version="1.1" xmlns="http://www.w3.org/2000/svg" p-id="3552" xmlns:xlink="http://www.w3.org/1999/xlink" width="200" height="200"><defs><style type="text/css"></style></defs><path d="M385.877333 579.925333l-12.765866-15.701333a123.392 123.392 0 0 0 33.9968 101.444267 117.486933 117.486933 0 0 0 135.7824 23.825066 21.947733 21.947733 0 0 1 29.525333 10.6496 22.801067 22.801067 0 0 1-10.4448 30.139734 161.109333 161.109333 0 0 1-186.1632-32.631467c-49.390933-50.449067-61.576533-126.737067-31.9488-190.122667a21.9136 21.9136 0 0 1 37.034667-4.642133l39.082666 48.2304c7.7824 9.6256 6.485333 23.8592-2.935466 31.812267a21.845333 21.845333 0 0 1-31.163734-3.003734z m211.626667-2.048l12.6976 13.4144a123.221333 123.221333 0 0 0-34.372267-97.8944 117.521067 117.521067 0 0 0-130.935466-26.0096 21.981867 21.981867 0 0 1-29.013334-12.014933 22.766933 22.766933 0 0 1 11.741867-29.627733 161.109333 161.109333 0 0 1 179.541333 35.669333 169.5744 169.5744 0 0 1 34.884267 183.296 21.9136 21.9136 0 0 1-36.283733 6.929067l-40.106667-42.325334a22.9376 22.9376 0 0 1 0.512-31.982933 21.8112 21.8112 0 0 1 31.300267 0.546133zM276.48 280.917333l20.753067-83.0464A58.4704 58.4704 0 0 1 353.962667 153.6h281.873066c26.8288 0 50.210133 18.261333 56.7296 44.270933L713.386667 280.917333a8.362667 8.362667 0 0 0 8.123733 6.314667h107.52c32.290133 0 58.4704 26.180267 58.4704 58.4704V813.397333c0 32.290133-26.180267 58.4704-58.4704 58.4704H160.8704A58.4704 58.4704 0 0 1 102.4 813.397333V345.7024c0-32.290133 26.180267-58.4704 58.4704-58.4704h107.52c3.857067 0 7.168-2.628267 8.123733-6.314667z m48.605867 12.151467a58.4704 58.4704 0 0 1-56.7296 44.270933h-107.52a8.362667 8.362667 0 0 0-8.362667 8.362667V813.397333c0 4.608 3.754667 8.328533 8.362667 8.328534h668.125866c4.608 0 8.362667-3.754667 8.362667-8.328534V345.7024a8.362667 8.362667 0 0 0-8.362667-8.362667h-107.52a58.4704 58.4704 0 0 1-56.7296-44.270933l-20.753066-83.0464a8.362667 8.362667 0 0 0-8.123734-6.314667h-281.873066a8.362667 8.362667 0 0 0-8.123734 6.314667l-20.753066 83.0464z" p-id="3553"></path></svg>