<?xml version="1.0" standalone="no"?><!DOCTYPE svg PUBLIC "-//W3C//DTD SVG 1.1//EN" "http://www.w3.org/Graphics/SVG/1.1/DTD/svg11.dtd"><svg t="1594111181093" class="icon" viewBox="0 0 1024 1024" version="1.1" xmlns="http://www.w3.org/2000/svg" p-id="11615" width="200" height="200" xmlns:xlink="http://www.w3.org/1999/xlink"><defs><style type="text/css"></style></defs><path d="M790.5 381.4c40.4 0 72.9-1.2 86.4-2.9 50.2-6.1 86.2-48.7 80.4-95-5.3-42.5-44-73.5-89.2-73.5-4 0-8.1 0.2-12.1 0.7-34.4 4.2-187.9 40.9-279.3 78.4-12.6-16.6-32.6-27.4-54.9-27.4h-21.4c-22.8 0-43.1 11.3-55.7 28.5-90.7-38-244.7-75.2-279.1-79.5-4.1-0.5-8.1-0.7-12.1-0.7-44.9 0-83.4 31.1-88.7 73.9-5.8 46.6 30 89.4 79.9 95.5 13.4 1.7 45.7 2.9 85.9 2.9 61.7 0 141.9-2.9 200.9-11.5v17.6c-88.6 5.2-210.5 26.4-235.4 33.6-39.1 11.4-62.3 50.2-51.7 86.7 8.6 29.7 36.9 48.8 68.2 48.8 7.2 0 14.6-1 21.9-3.1 25.3-7.3 144.1-53.9 222.2-95.8v332.1c0 26.5 21.7 48.2 48.2 48.2h12.2c26.5 0 48.2-21.7 48.2-48.2V458.5v-0.2c78.6 41.4 196.4 87.1 221.7 94.3 7.4 2.1 14.8 3.1 22.1 3.1 31.5 0 59.9-18.9 68.6-48.5 10.7-36.4-12.6-75-52-86.3-24.8-7.1-146.1-28-235-33.4v-17.3c59.1 8.4 138.5 11.2 199.8 11.2z m-403-40.3c-60.1 5.7-124.2 6.6-157 6.6-41.8 0-71.1-1.3-81.6-2.6-15.4-1.9-29-9.2-38.5-20.4-8.9-10.6-12.9-23.5-11.3-36.4 3.1-24.8 26.4-43.5 54.3-43.5 2.6 0 5.2 0.2 7.8 0.5 18.1 2.2 89.6 18 167.8 41.6 47.5 14.3 80.3 26.3 102.9 35.8-0.3 2.7-0.5 5.4-0.5 8.1v5.1c-11.9 1.7-26.3 3.5-43.9 5.2z m-21.8 123.2c-64.7 29.2-126.2 52.5-140.9 56.8-4 1.2-8.2 1.8-12.3 1.8-16.7 0-30.7-9.5-34.8-23.7-2.4-8.3-1.1-17.4 3.7-25.4 5.2-8.8 13.9-15.3 24.4-18.4 10.5-3.1 52.4-11.4 108.8-19.5 46.5-6.7 88.4-11.2 121.6-13 0.8 2 1.7 4 2.6 5.9-18.1 9.7-41.9 21.5-73.1 35.5z m165 326.5c0 7.3-6.2 13.5-13.5 13.5H505c-7.3 0-13.5-6.2-13.5-13.5V466.3c2.9 0.4 5.9 0.6 8.9 0.6h21.4c3 0 6-0.2 8.9-0.6v324.5zM555.9 398c0 9.1-3.6 17.6-10.1 24.1s-15.1 10.1-24.1 10.1h-21.4c-9.1 0-17.6-3.6-24.1-10.1S466.1 407 466.1 398v-67.4c0-9.1 3.6-17.6 10.1-24.1s15.1-10.1 24.1-10.1h21.4c9.1 0 17.6 3.6 24.1 10.1s10.1 15.1 10.1 24.1V398z m150.6 36.7c56.7 8.1 98.9 16.3 109.5 19.4 10.5 3 19.2 9.5 24.5 18.3 4.8 8 6.1 17 3.7 25.2-4.1 14.1-18.2 23.6-35 23.6-4.1 0-8.3-0.6-12.3-1.8-15-4.2-76.8-27.4-141.9-56.4-30.3-13.5-53.6-24.9-71.6-34.3 1.1-2.2 2.1-4.4 2.9-6.7 33.1 1.8 74.4 6.2 120.2 12.7zM590 321.1c22.7-9.3 55.1-21 101.5-34.8 78.7-23.4 150.6-39.1 168.8-41.3 2.6-0.3 5.3-0.5 7.9-0.5 28 0 51.5 18.6 54.6 43.3 1.6 12.8-2.4 25.7-11.3 36.2-9.5 11.2-23.2 18.4-38.7 20.3-10.6 1.3-40.1 2.6-82.1 2.6-33 0-97.4-0.8-157.9-6.5-16.6-1.6-30.4-3.3-42-5v-4.7c-0.2-3.3-0.4-6.5-0.8-9.6z" fill="#1296db" p-id="11616"></path><path d="M562.3 267.9c24.1 0 43.6-19.5 43.6-43.6s-19.5-43.6-43.6-43.6-43.6 19.5-43.6 43.6c0 24 19.5 43.6 43.6 43.6z m0-52.6c4.9 0 8.9 4 8.9 8.9s-4 8.9-8.9 8.9-8.9-4-8.9-8.9 4-8.9 8.9-8.9zM459.7 267.9c24.1 0 43.6-19.5 43.6-43.6s-19.5-43.6-43.6-43.6-43.6 19.5-43.6 43.6c0 24 19.5 43.6 43.6 43.6z m0-52.6c4.9 0 8.9 4 8.9 8.9s-4 8.9-8.9 8.9-8.9-4-8.9-8.9 4-8.9 8.9-8.9z" fill="#1296db" p-id="11617"></path></svg>