<?xml version="1.0" standalone="no"?><!DOCTYPE svg PUBLIC "-//W3C//DTD SVG 1.1//EN" "http://www.w3.org/Graphics/SVG/1.1/DTD/svg11.dtd"><svg t="1595487337371" class="icon" viewBox="0 0 1024 1024" version="1.1" xmlns="http://www.w3.org/2000/svg" p-id="1497" xmlns:xlink="http://www.w3.org/1999/xlink" width="200" height="200"><defs><style type="text/css"></style></defs><path d="M97.2 699.5c114.5 89 258.7 142.1 415.5 142.1s301-53.1 415.5-142.1L512.7 40.7 97.2 699.5z" fill="#FFFFFF" p-id="1498"></path><path d="M155.3 764.1c114.5 89 258.7 142.1 415.5 142.1s301-53.1 415.5-142.1L570.7 105.3 155.3 764.1z" fill="#F45454" p-id="1499"></path><path d="M512.7 839.8c-156.7 0-301-53.1-415.5-142.1L31.8 801.3c122.3 123.5 292.5 200.1 480.8 200.1s358.6-76.6 480.8-200.1L928 697.6c-114.3 89.1-258.6 142.2-415.3 142.2z" fill="#FFFFFF" p-id="1500"></path><path d="M545.4 834c-156.7 0-244.6-17-377-93L103 844.7c122.3 123.5 274.4 156.2 462.5 148.7 193.5-7.7 295.7-80.5 425.7-195l-65-97.5C793.1 784.4 702.2 834 545.4 834z" fill="#E4EADC" p-id="1501"></path><path d="M512.7 1023.2c-94.7 0-186.6-18.6-273-55.3-83.4-35.5-158.1-86.2-222-150.7L6.6 806 512.7 3.4 1018.8 806l-11.1 11.2c-63.9 64.5-138.6 115.2-222 150.7-86.4 36.7-178.3 55.3-273 55.3zM57.2 800.3c57.7 55.6 124.3 99.6 198.1 131 81.4 34.6 168 52.2 257.4 52.2 89.4 0 176-17.6 257.4-52.2 73.8-31.4 140.4-75.4 198.1-131L512.7 78 57.2 800.3z" fill="#424649" p-id="1502"></path><path d="M400.9 596.3c1.4 21.7 18.1 30 27.2 30 10.3 0 27.6-7.3 28.3-29.6L432 543.3c-1.3-2.8-4.8-2.8-6.2-0.1l-24.9 53.1zM567.2 597.7c1.4 21.7 18.1 30 27.2 30 10.3 0 27.6-7.3 28.3-29.6l-24.4-53.4c-1.3-2.8-4.8-2.8-6.2-0.1l-24.9 53.1zM484.6 428.2c1.4 21.7 18.1 30 27.2 30 10.3 0 27.6-7.3 28.3-29.6l-24.4-53.4c-1.3-2.8-4.8-2.8-6.2-0.1l-24.9 53.1z" fill="#424649" p-id="1503"></path><path d="M512.7 861.5c-78.9 0-156.3-13-230.1-38.8-71.4-24.8-137.8-61-197.6-107.5l-14.2-11.1L512.7 3.4l441.9 700.7-14.2 11.1c-59.8 46.5-126.2 82.7-197.5 107.5-73.9 25.8-151.3 38.8-230.2 38.8zM123.8 694.7c52.6 38.6 110.3 69 171.8 90.5 69.6 24.3 142.6 36.6 217 36.6s147.5-12.3 217-36.6c61.6-21.5 119.3-51.9 171.8-90.5L512.7 78 123.8 694.7z" fill="#424649" p-id="1504"></path></svg>