<?xml version="1.0" standalone="no"?><!DOCTYPE svg PUBLIC "-//W3C//DTD SVG 1.1//EN" "http://www.w3.org/Graphics/SVG/1.1/DTD/svg11.dtd"><svg t="1594710538828" class="icon" viewBox="0 0 1024 1024" version="1.1" xmlns="http://www.w3.org/2000/svg" p-id="1614" xmlns:xlink="http://www.w3.org/1999/xlink" width="200" height="200"><defs><style type="text/css"></style></defs><path d="M512 7.68C231.424 7.68 3.584 235.008 3.584 516.096S231.424 1024 512 1024s508.416-227.328 508.416-508.416S792.576 7.68 512 7.68z m0 941.568c-239.616 0-433.664-194.048-433.664-433.664S272.384 82.432 512 82.432s433.664 194.048 433.664 433.664-194.048 433.152-433.664 433.152z" fill="#F4DCCB" p-id="1615"></path><path d="M631.296 790.528c-9.216 0-18.432-3.584-25.6-10.752l-238.592-238.592c-13.824-13.824-13.824-36.864 0-50.688l238.592-239.104c13.824-13.824 36.864-13.824 50.688 0s13.824 36.864 0 50.688l-213.504 214.016 213.504 213.504c13.824 13.824 13.824 36.864 0 50.688-6.656 6.656-15.872 10.24-25.088 10.24z" fill="#FF9D4D" p-id="1616"></path></svg>